<svg width="41" height="41" viewBox="0 0 41 41" fill="none" xmlns="http://www.w3.org/2000/svg">
<path d="M37.3975 9.99832C37.3975 8.90881 37.3975 9.05616 37.3975 8.01981H33.6026V3.57617H30.53V8.01981H26.1353V11.0924H30.53V15.4259H33.6026V11.0924H37.3975C37.3975 11.0434 37.3975 9.99832 37.3975 9.99832Z" fill="#FF395C"/>
<path d="M20.3085 0H0V20.3086H20.3085V0Z" fill="white"/>
<path d="M12.3027 4.51721H15.8037V13.735L13.5758 15.7916H6.74507L4.51712 13.7227V4.51721H8.01817V12.6088L8.49559 13.0862H11.8252L12.3027 12.6088V4.51721Z" fill="black"/>
<path d="M40.5423 20.4377H20.2338V40.7463H40.5423V20.4377Z" fill="white"/>
<path d="M28.2397 33.1445V36.2293H24.7385V24.955H33.9564L36.0252 26.8646V31.2471L33.9564 33.1567H28.2397V33.1445ZM32.0467 27.6603H28.2397V30.4514H32.0467L32.5242 29.9739V28.1377L32.0467 27.6603Z" fill="black"/>
<path d="M20.3085 40.7463V20.4377H9.53674e-07V40.7463H20.3085Z" fill="white"/>
<path d="M8.40183 36.2336V27.6646H4.5091V24.9592H15.7957V27.6646H11.9029V36.2336H8.40183Z" fill="black"/>
</svg>
